<svg xmlns="http://www.w3.org/2000/svg" width="126.674" height="22.451">
  <path d="M108.922 13.837c0-4.764 3.492-8.614 7.831-8.614a6.7 6.7 0 014.7 1.893V5.745h5.221V21.93h-5.221v-1.369a6.72 6.72 0 01-4.7 1.89c-4.339 0-7.831-3.846-7.831-8.614zm5.221 0a3.793 3.793 0 003.656 3.915 3.793 3.793 0 003.654-3.915 3.793 3.793 0 00-3.654-3.917 3.793 3.793 0 00-3.657 3.917zm-44.4 0c0-4.764 3.294-8.614 8.875-8.614a8.547 8.547 0 018.875 8.614 8.509 8.509 0 01-8.875 8.614c-5.516 0-8.876-3.846-8.876-8.614zm5.221 0a3.794 3.794 0 003.654 3.915 3.794 3.794 0 003.655-3.915 3.794 3.794 0 00-3.655-3.917 3.794 3.794 0 00-3.654 3.917zm-22.723 6.592l1.4-4.242a13.736 13.736 0 005.222 1.761c2.123.2 3.817.032 3.817-.75 0-.75-.88-.847-3.426-1.14-5.678-.72-6.5-3.559-6.5-5.354 0-3.165 2.253-5.48 7.67-5.48a15.421 15.421 0 016.2 1.339l-1.207 4.208a12.8 12.8 0 00-4.894-1.207c-1.371 0-2.548.065-2.548.686 0 .782 1.373.882 2.677 1.073 5.256.588 7.243 2.188 7.243 5.385 0 3.3-2.511 5.745-8.286 5.745a13.2 13.2 0 01-7.367-2.024zm-32.912-6.592c0-4.764 2.871-8.614 8.616-8.614 5.154 0 8.092 3.2 8.092 8.614 0 .358-.032.882-.064 1.306H24.811c.425 1.531 1.831 2.608 4.015 2.608a13.953 13.953 0 004.731-.979l1.438 4.145a12.02 12.02 0 01-6.3 1.532c-6.525.002-9.366-3.913-9.366-8.612zm5.481-1.828h5.745a2.719 2.719 0 00-2.869-2.61 2.938 2.938 0 00-2.875 2.606zm76.271 9.92v-8.877c0-2.608-1.471-3.132-2.613-3.132-1.077 0-3.132.72-3.132 3.656v8.353h-5.221V5.744h5.227v1.565a6.111 6.111 0 014.7-2.087c3.294 0 6.267 2.414 6.267 7.308v9.4zm-62.423 0V5.744h5.221v3.425c1.078-2.511 3.328-3.753 6.267-3.947v5.743a5.367 5.367 0 00-3.133 0 4.667 4.667 0 00-3.134 4.667v6.3zm-38.659 0V.005h8.874c5.713 0 8.357 3.068 8.357 7.31 0 3.984-2.677 7.571-7.312 7.571h-4.7v7.049zm5.223-11.746h3.619c1.731 0 3.169-1.013 3.169-2.744 0-1.955-1.437-2.74-3.169-2.74H5.222z" fill="#fff"/>
</svg>
